<?xml version="1.0" encoding="UTF-8"?>
<svg version="1.1" width="616px" height="218px" viewBox="0 0 616.0 218.0"
     fill="none"
     xmlns="http://www.w3.org/2000/svg"
     xmlns:xlink="http://www.w3.org/1999/xlink">
    <defs>
        <clipPath id="i0">
            <path d="M1672,0 L1672,1062 L0,1062 L0,0 L1672,0 Z"></path>
        </clipPath>
        <clipPath id="i1">
            <path d="M460.865,177.481 L460.789771,177.89436 C460.308913,180.500954 459.863283,182.862918 459.452881,184.980253 C458.669384,189.022436 458.479105,191.094919 458.882043,191.197701 C459.37069,191.22331 460.208318,189.654327 461.394925,186.49075 C461.856383,185.260471 462.332727,183.922904 462.823957,182.47805 L462.891,182.276 L462.770819,181.924701 C462.275904,180.530524 461.703041,179.167866 461.05223,177.836727 L460.993,177.724 L460.865,177.481 Z M66.079,16.7312558 L39.229,16.7312558 L16.317,124.131256 C16.1976667,124.727922 16.1081667,125.294756 16.0485,125.831756 C15.9888333,126.368756 15.959,126.935589 15.959,127.532256 C15.959,131.589589 17.3015,135.020422 19.9865,137.824756 C22.6715,140.629089 26.162,142.031256 30.458,142.031256 L102.058,142.031256 C106.831333,142.031256 111.425667,140.300922 115.841,136.840256 C120.137,133.260256 122.762333,129.023922 123.717,124.131256 L146.629,16.7312558 L119.779,16.7312558 L98.478,116.971256 L44.778,116.971256 L66.079,16.7312558 Z M190.126,16.7312558 L159.696,16.7312558 L183.145,142.031256 L217.155,142.031256 L232.191,117.329256 L236.845,142.031256 L270.855,142.031256 L347.646,16.7312558 L317.216,16.7312558 L261.01,108.558256 L255.461,79.3812558 L293.946,16.7312558 L263.516,16.7312558 L248.48,41.2542558 L243.826,16.7312558 L213.396,16.7312558 L225.031,79.3812558 L207.31,108.558256 L190.126,16.7312558 Z M387.563,16.7312558 L360.713,16.7312558 L337.801,124.131256 C337.681667,124.727922 337.592167,125.294756 337.5325,125.831756 C337.472833,126.368756 337.443,126.935589 337.443,127.532256 C337.443,131.589589 338.7855,135.020422 341.4705,137.824756 C344.1555,140.629089 347.646,142.031256 351.942,142.031256 L423.542,142.031256 C428.315333,142.031256 432.909667,140.300922 437.325,136.840256 C441.621,133.260256 444.246333,129.023922 445.201,124.131256 L468.113,16.7312558 L441.263,16.7312558 L419.962,116.971256 L366.262,116.971256 L387.563,16.7312558 Z M491.411502,59.0128928 C490.494308,59.3731492 489.628591,59.9198494 488.814352,60.6529935 C488.000113,61.3861376 487.303768,62.2071252 486.725316,63.1159562 C486.146864,64.0247872 485.754857,64.8821406 485.549293,65.6880164 C484.975282,67.2912318 484.819235,69.1000978 485.081151,71.1146143 C485.343066,73.1291308 486.348537,74.5905448 488.097562,75.4988563 C488.972075,75.9530121 489.825073,76.0385483 490.656558,75.755465 C491.488043,75.4723817 492.265916,75.0435751 492.990178,74.4690453 C493.714439,73.8945154 494.382955,73.214983 494.995725,72.4304479 C495.608495,71.6459128 496.056248,70.893562 496.338986,70.1733955 C496.707432,69.376056 496.960119,68.4501524 497.097046,67.3956847 C497.233973,66.341217 497.248739,65.2803472 497.141342,64.213075 C497.033946,63.1458029 496.759399,62.1514357 496.317701,61.2299734 C495.876003,60.3085111 495.217898,59.6207021 494.343386,59.1665463 C493.305991,58.7038542 492.328696,58.6526364 491.411502,59.0128928 Z M510.327233,155.031939 C510.14875,157.109278 509.993361,158.907838 509.861067,160.427622 C509.732676,161.319207 509.559297,162.290099 509.340928,163.340299 C509.12256,164.390498 508.784164,165.393575 508.32574,166.349529 C507.867316,167.305483 507.235253,168.06859 506.42955,168.638852 C505.623847,169.209114 504.526611,169.498686 503.137843,169.507569 C501.834783,169.439278 500.750179,168.708701 499.884029,167.315837 C499.01788,165.922973 498.374627,164.562207 497.95427,163.233539 C497.109191,160.936509 496.401138,158.202786 495.83011,155.032372 L510.327233,155.031939 Z M510.643438,151.342571 C510.959801,147.643398 511.263446,144.576462 511.554373,142.141761 C512.341791,136.466485 513.247103,130.879052 514.270308,125.379463 L514.271,125.376 L514.307,125.173 L514.31,125.155 L514.331,125.04 L514.338,125.003 L514.357,124.897 L514.383,124.749 L514.396,124.683 L514.375532,124.455439 C514.295419,123.55773 514.224898,122.574056 514.163968,121.504415 L514.134303,120.962431 C514.025253,118.887871 513.933314,116.659953 513.858486,114.278675 L513.839,113.631 L513.814022,113.706818 C512.875152,116.574582 512.041156,119.41339 511.312036,122.223241 C510.339875,125.969711 509.344153,129.776194 508.32487,133.64269 C508.016524,134.851504 507.624689,136.484683 507.149366,138.542228 C506.674042,140.599772 506.320794,142.275806 506.089621,143.570329 C505.265634,139.035576 504.563808,134.507225 503.984145,129.985277 C503.404481,125.463328 502.837708,121.084969 502.283826,116.850199 C501.729945,112.615429 501.143965,108.603555 500.525888,104.814578 C499.907811,101.0256 499.229807,97.600974 498.491875,94.5406993 C498.354602,94.0435157 498.14451,93.7670943 497.8616,93.7114352 C497.578689,93.655776 497.312938,93.6622648 497.064347,93.7309016 C496.567163,93.8681751 496.134348,94.3354816 495.765902,95.1328212 C495.405991,95.7672783 495.072037,97.4647394 494.764037,100.225204 C494.456037,102.985669 494.195334,106.401932 493.981926,110.473993 C493.768518,114.546054 493.655932,119.031723 493.644166,123.931001 C493.632401,128.830278 493.764224,133.716665 494.039637,138.59016 C494.31505,143.463655 494.768284,148.060643 495.399338,152.381122 C495.533028,153.296424 495.676619,154.180174 495.83011,155.032372 L489.460296,155.031355 C490.809187,158.226694 491.72895,161.595558 492.219586,165.137949 C492.812054,169.415574 492.392909,173.517685 490.962151,177.444282 C489.171483,182.005337 486.574767,185.585001 483.172001,188.183277 C481.226294,189.46961 479.387638,190.271564 477.656031,190.589139 C477.570322,190.666312 477.197434,190.769267 476.537368,190.898004 C475.877302,191.026741 475.195809,191.174772 474.492888,191.342096 C473.789967,191.509419 473.153463,191.578143 472.583374,191.548266 C472.013286,191.518388 471.693923,191.379154 471.625286,191.130562 C471.55665,190.88197 472.085931,190.521801 473.21313,190.050053 C474.34033,189.578305 474.989639,189.265258 475.161058,189.110912 C476.583972,188.450499 477.981104,187.502909 479.352454,186.26814 C481.683679,183.858702 483.136124,181.07655 483.709788,177.921683 C484.257843,175.255464 484.308628,172.338605 483.862143,169.171107 C483.415658,166.003609 482.433489,163.318443 480.915637,161.115608 C479.722184,159.215602 478.473657,157.284353 477.170056,155.321862 L476.976,155.031 L470.190662,155.030398 C469.919732,156.473509 469.610437,157.973577 469.262776,159.5306 L469.072342,160.37243 C467.907595,165.456277 466.63349,170.289398 465.250029,174.871793 C464.481439,177.417569 463.743228,179.74439 463.035395,181.852258 L462.891,182.276 L463.011781,182.624417 C463.715179,184.731443 464.243195,186.909389 464.595829,189.158254 L464.706878,189.910502 C465.299346,194.188127 464.880201,198.290238 463.449444,202.216836 C461.658776,206.77789 459.062059,210.357555 455.659293,212.95583 C453.713586,214.242163 451.87493,215.044117 450.143324,215.361692 C450.057614,215.438865 449.684727,215.54182 449.02466,215.670557 C448.364594,215.799295 447.683101,215.947325 446.98018,216.114649 C446.27726,216.281973 445.640755,216.350696 445.070666,216.320819 C444.500578,216.290942 444.181215,216.151707 444.112579,215.903116 C444.043942,215.654524 444.573223,215.294354 445.700423,214.822606 C446.827622,214.350858 447.476931,214.037811 447.64835,213.883465 C449.071264,213.223053 450.468396,212.275462 451.839746,211.040693 C454.170971,208.631256 455.623416,205.849103 456.19708,202.694237 C456.745135,200.028017 456.79592,197.111159 456.349435,193.943661 C455.90295,190.776163 454.920781,188.090996 453.402929,185.888162 C451.970786,183.608154 450.459336,181.283157 448.868578,178.913172 C447.277821,176.543187 445.607757,174.128213 443.858385,171.66825 C443.490631,175.568892 442.724381,180.061137 441.559634,185.144984 C440.394887,190.22883 439.120783,195.061952 437.737321,199.644347 C436.353859,204.226742 435.068825,208.099728 433.882217,211.263304 C432.69561,214.42688 431.857983,215.995864 431.369335,215.970255 C430.966397,215.867473 431.156677,213.79499 431.940173,209.752806 C432.723669,205.710622 433.635556,200.776853 434.675834,194.951499 C435.716112,189.126145 436.591287,182.945062 437.301359,176.408251 C438.011431,169.87144 438.052987,164.014161 437.426027,158.836414 C437.220001,157.573422 437.02255,156.319953 436.833674,155.076007 L436.826,155.031 L12,155.031256 C5.372583,155.031256 -8.0701597e-15,149.658673 0,143.031256 L0,17.0312558 C-8.11624501e-16,10.4038388 5.372583,5.03125577 12,5.03125577 L554,5.03125577 C560.627417,5.03125577 566,10.4038388 566,17.0312558 L566.002051,51.8091179 C566.072804,53.0558349 566.11689,54.2920821 566.134307,55.5178593 C566.160436,57.3566889 566.165137,59.2148118 566.14841,61.0922279 C566.200667,64.7698871 566.375086,68.4539485 566.671666,72.1444122 C566.968246,75.8348759 567.391257,79.4503005 567.940697,82.9906862 C568.516093,87.5940759 569.59294,91.9787508 571.171239,96.144711 C571.727831,93.3156092 572.34657,90.4693482 573.027457,87.605928 C573.708345,84.7425078 574.369939,81.8576603 575.01224,78.9513854 C575.123558,78.3855651 575.53682,76.7330927 576.252026,73.9939684 C576.967231,71.2548442 577.753121,68.3356782 578.609696,65.2364707 C579.180745,63.1703323 579.744207,61.2489784 580.300081,59.4724088 L580.37,59.251 L580.354121,59.0574027 C580.217262,57.2802685 580.127957,55.358963 580.086208,53.2934863 L580.072781,52.5121745 C580.020524,48.8345153 580.223261,44.9660575 580.680992,40.9068011 C581.138724,36.8475448 581.845047,32.7196516 582.799962,28.5231218 C583.754877,24.3265919 585.020618,20.4321789 586.597185,16.8398827 C588.173753,13.2475866 590.056879,10.0388485 592.246563,7.21366858 C594.436247,4.38848862 597.039712,2.23831323 600.056959,0.763142414 C601.479873,0.102730071 602.90074,-0.129048846 604.319559,0.0678056614 C605.738378,0.264660169 606.366346,0.35881927 606.203464,0.350282963 C605.869162,0.496092783 605.408431,0.716941589 604.82127,1.01282938 C604.234109,1.30871718 603.473395,1.7996717 602.539128,2.48569297 C600.756304,3.78056243 599.262879,5.39684203 598.058853,7.33453176 C596.854827,9.2722215 595.843733,11.4241847 595.025572,13.7904212 C594.207411,16.1566578 593.522169,18.7136064 592.969846,21.461267 C592.417523,24.2089276 591.901652,27.0401635 591.422233,29.9549747 C591.268234,31.3352072 591.088798,33.9799127 590.883927,37.8890911 C590.679055,41.7982695 590.742156,46.0481513 591.073228,50.6387365 C591.404299,55.2293217 592.108259,59.7169517 593.185106,64.1016267 C594.261954,68.4863016 595.8808,71.8785702 598.041646,74.2784326 C600.218526,71.6975763 602.032928,67.8523336 603.484853,62.7427046 C604.936779,57.6330756 605.955716,52.2149274 606.541665,46.4882602 C607.127614,40.761593 607.259234,35.1336127 606.936525,29.6043194 C606.613817,24.0750262 605.727681,19.5574325 604.278119,16.0515383 C603.849226,14.8857523 603.311062,13.8571533 602.663628,12.9657413 C602.016193,12.0743292 601.13946,11.2729812 600.033428,10.5616973 C599.398971,10.2017872 599.043156,9.9789775 598.965983,9.89326813 C598.743,9.47325759 599.280904,9.33811815 600.579695,9.48784982 C601.878487,9.63758149 603.119485,10.1109439 604.302689,10.9079372 C608.80399,13.8387821 611.899708,18.2680129 613.589845,24.1956296 C615.279982,30.1232464 615.928629,36.4454379 615.535786,43.1622042 C615.142942,49.8789705 613.98281,56.4330275 612.055388,62.8243752 C610.127966,69.2157229 607.835933,74.3834049 605.179289,78.3274211 C603.48252,81.0967688 601.296931,83.0646819 598.622522,84.2311605 C596.29095,85.0889468 594.010596,84.9694385 591.78146,83.8726356 C589.552323,82.7758327 587.794589,81.254578 586.508256,79.3088714 C584.844593,76.7717355 583.555953,74.0909239 582.642334,71.2664365 C582.227053,69.9825787 581.864457,68.6592996 581.554545,67.2965993 L581.477,66.943 L581.451948,67.1003898 C581.257881,68.2063061 581.073338,69.3036477 580.898318,70.3924145 L580.64293,72.0191336 C579.957947,75.7398207 579.330845,79.5247898 578.761622,83.3740409 C578.192399,87.223292 577.64247,91.0939704 577.111834,94.9860762 C576.974906,96.0405438 576.889457,97.2814553 576.855485,98.7088107 C576.821513,100.136166 576.740331,101.295636 576.61194,102.187222 C576.526577,103.816046 576.19689,105.432066 575.62288,107.035281 C575.04887,108.638497 573.780302,109.470328 571.817176,109.530774 C571.079937,109.573802 570.413382,109.436789 569.817512,109.119733 C569.221641,108.802678 568.606477,108.464195 567.97202,108.104285 C567.258242,107.496697 566.600705,106.827277 565.99941,106.096026 L566,143.031256 C566,149.658673 560.627417,155.031256 554,155.031256 L510.327233,155.031939 C510.425617,153.886856 510.531019,152.657067 510.643438,151.342571 Z M464.426371,155.032662 L470.190662,155.030398 C470.7444,152.08091 471.137877,149.369343 471.371093,146.895697 C472.828903,148.945666 474.231638,150.964392 475.579299,152.951877 L476.381286,154.140619 L476.389,154.152 L476.436,154.223 L476.454,154.25 L476.504,154.324 L476.511,154.334 L476.535,154.37 L476.546,154.387 L476.567,154.419 L476.626,154.507 L476.681,154.589 L476.731,154.664 L476.777,154.733 L476.818,154.794 L476.887,154.897 L476.913,154.937 L476.936,154.971 L476.966,155.016 L476.976,155.03 L489.460296,155.031355 C489.180329,154.368153 488.881877,153.712426 488.564938,153.064174 C487.450024,150.964121 486.37583,148.866203 485.342357,146.770418 C484.308883,144.674634 483.238958,142.495274 482.13258,140.232339 C481.180548,138.140822 480.292798,135.991426 479.46933,133.78415 C478.645862,131.576874 478.006704,129.358841 477.551855,127.130051 C477.285845,125.972801 477.246998,124.766208 477.435317,123.510272 C477.623635,122.254335 477.749805,121.015558 477.813827,119.793939 C477.87785,118.572321 477.776855,117.382887 477.510845,116.225637 C477.244834,115.068388 476.644522,114.056948 475.709909,113.191318 C474.543777,112.06856 473.146298,111.464499 471.517474,111.379136 C469.88865,111.293773 468.474272,111.791303 467.274341,112.871726 C465.902991,114.106495 464.94747,115.587635 464.407778,117.315146 C463.868086,119.042658 463.55129,120.802267 463.457391,122.593974 C463.595011,124.642808 463.799047,126.593043 464.069499,128.444677 C464.339951,130.296311 464.629696,132.169372 464.938735,134.063861 C465.565694,139.241607 465.524138,145.098886 464.814066,151.635698 C464.689884,152.778899 464.560652,153.91122 464.426371,155.032662 Z M436.567,153.289 L436.575,153.344 L436.593,153.468 L436.596,153.487 L436.616,153.617 L436.617,153.625 L436.63,153.714 L436.632,153.73 L436.636,153.756 L436.655,153.882 L436.659,153.907 L436.673,154.002 L436.69,154.116 L436.695,154.152 L436.706,154.223 L436.71,154.25 L436.721,154.324 L436.722,154.334 L436.728,154.37 L436.73,154.387 L436.735,154.419 L436.748,154.507 L436.76,154.589 L436.782,154.733 L436.791,154.794 L436.799,154.849 L436.806,154.897 L436.812,154.937 L436.817,154.971 L436.821,154.997 L436.824,155.016 L436.826,155.027 L436.826,155.03 L450.800837,155.031749 C450.506391,153.991068 450.252494,152.948019 450.039148,151.902604 C449.773137,150.745355 449.734291,149.538762 449.922609,148.282825 C450.110927,147.026888 450.237097,145.788111 450.30112,144.566493 C450.365142,143.344874 450.264148,142.15544 449.998137,140.998191 C449.732126,139.840941 449.131814,138.829501 448.197201,137.963871 C447.031069,136.841113 445.633591,136.237053 444.004766,136.15169 C442.375942,136.066326 440.961564,136.563856 439.761633,137.644279 C438.390283,138.879048 437.434762,140.360188 436.89507,142.0877 C436.355378,143.815211 436.038583,145.57482 435.944683,147.366527 C436.062643,149.122671 436.229398,150.806374 436.444949,152.417636 L436.556791,153.21723 L436.567,153.289 Z M565.99941,106.096026 L566.002051,51.8091179 C565.966665,51.1855929 565.924608,50.559449 565.87588,49.9306862 C565.789825,48.456208 565.74449,46.9838639 565.739875,45.5136538 C565.735261,44.0434438 565.608485,42.5668315 565.359546,41.083817 C565.196318,39.5236294 564.48238,38.3429049 563.217734,37.5416435 C561.953088,36.7403821 560.617844,36.5070752 559.212003,36.8417226 C558.303345,37.0390966 557.549033,37.4078893 556.949068,37.9481008 C556.349102,38.4883122 555.82631,39.114233 555.38069,39.8258632 C554.215251,41.8064076 553.448481,43.9711752 553.080381,46.3201661 C552.71228,48.6691569 552.391303,50.8981199 552.117449,53.0070553 C551.176031,60.062564 550.236747,67.0773522 549.299597,74.0514198 C548.362448,81.0254873 546.900198,87.8903706 544.912849,94.6460698 C544.525945,89.5625691 544.361937,84.5111662 544.420825,79.491861 C544.479714,74.4725558 544.234265,69.4168847 543.684478,64.3248477 C543.43554,62.8418332 542.719468,61.7018293 541.536263,60.9048361 C540.353059,60.1078429 539.019949,59.8338153 537.536934,60.0827534 C535.625373,60.7175568 534.344001,61.7937115 533.692817,63.3112176 C532.381914,66.5091121 531.309019,70.2298857 530.474132,74.4735384 C529.639245,78.7171912 528.909447,83.293011 528.284738,88.2009979 C527.660029,93.1089848 527.061102,98.30415 526.487958,103.786494 C525.986456,108.583544 525.373385,113.421641 524.648745,118.300785 L524.331,120.393 L524.072328,119.233695 C523.400216,116.129484 522.877104,112.952425 522.502992,109.702518 C522.082115,106.046373 521.6848,102.330214 521.311047,98.5540405 C520.937293,94.7778675 520.518551,91.0810016 520.05482,87.4634428 C519.591089,83.845884 518.955939,80.3826714 518.149371,77.0738049 C518.157907,76.9109225 518.005609,76.3108703 517.692475,75.2736484 C517.379342,74.2364265 517.025487,73.1970706 516.630913,72.1555805 C516.236338,71.1140905 515.850386,70.2976308 515.473057,69.7062015 C515.095728,69.1147722 514.851404,69.1019678 514.740086,69.6677881 C514.491841,71.2880761 514.30805,73.62631 514.188715,76.6824897 C514.06938,79.7386694 513.952265,83.1420413 513.837372,86.8926054 C513.722478,90.6431695 513.659061,94.5801775 513.647123,98.7036293 C513.635184,102.827081 513.672502,106.789785 513.759077,110.59174 C513.780721,111.542228 513.804771,112.471151 513.831228,113.378508 L513.839,113.631 L514.292196,112.270522 L514.78785,110.829401 C514.804922,110.503637 515.023377,109.84135 515.443215,108.842541 C515.863052,107.843733 516.192998,107.391451 516.433054,107.485697 L516.606693,107.678543 C516.64528,107.721398 516.651769,107.987149 516.62616,108.475796 C516.133533,113.668366 515.448191,118.751613 514.570132,123.725537 L514.395,124.687 L514.416388,124.897129 C514.541353,126.200709 514.6879,127.310866 514.856028,128.227598 C515.534205,132.42805 516.396692,136.617745 517.44349,140.796683 C518.490287,144.975621 520.325627,148.522149 522.949511,151.436267 C524.038471,152.473316 525.305164,152.845944 526.749592,152.554151 C528.19402,152.262358 529.237558,151.43915 529.880205,150.084527 C530.162942,149.36436 530.242076,148.633523 530.117607,147.892016 C529.993138,147.150509 529.909389,146.411136 529.866361,145.673896 C529.058062,134.606774 528.950635,123.80096 529.544081,113.256457 C530.137528,102.711954 531.556143,92.3944414 533.799928,82.3039205 C533.911593,83.2897514 534.132701,84.914221 534.463254,87.1773293 L534.555053,87.8017137 C534.866548,89.9069051 535.233003,92.2511977 535.654419,94.8345914 C536.117977,97.6763246 536.639415,100.58234 537.218732,103.552637 C537.798049,106.522934 538.430892,109.251042 539.117259,111.73696 C539.803627,114.222878 540.494176,116.239442 541.188907,117.786652 C541.883638,119.333862 542.642477,120.047366 543.465426,119.927165 C544.451257,119.815501 545.318934,118.452254 546.068458,115.837426 C546.817982,113.222597 547.458149,110.357043 547.988958,107.240763 C548.519768,104.124483 548.922013,101.123962 549.195694,98.2392013 C549.469376,95.3544404 549.666144,93.5477085 549.785998,92.8190057 C550.453562,87.8724323 551.198298,83.0115682 552.020208,78.2364135 C552.842117,73.4612588 553.904082,68.7803498 555.206103,64.1936864 C555.429778,67.7169995 555.807887,71.7996441 556.340427,76.4416203 C556.872968,81.0835965 557.619696,85.1447272 558.580611,88.6250125 C558.983895,90.2794457 559.445059,91.998161 559.964103,93.7811583 C560.483147,95.5641556 561.14578,97.3342619 561.952002,99.0914771 C562.758224,100.848692 563.630862,102.507307 564.569917,104.067322 C564.917687,104.64506 565.2922,105.193398 565.693455,105.712335 L565.99941,106.096026 Z M581.477,66.941 L581.619407,66.1022377 C581.833082,64.7675984 582.008349,63.4178798 582.145207,62.0530818 C582.247989,61.6501439 582.344282,60.981455 582.434087,60.0470151 C582.523891,59.1125752 582.635123,58.158842 582.767782,57.1858155 C582.900441,56.2127891 583.007404,55.3404971 583.088672,54.5689397 C583.169941,53.7973822 583.129133,53.4073353 582.966251,53.398799 C582.563313,53.296017 581.95063,54.4684649 581.128201,56.9161427 C580.922593,57.5280622 580.715919,58.1603419 580.508178,58.812982 L580.37,59.251 L580.407673,59.7170701 C580.482047,60.5876158 580.568309,61.4221187 580.666461,62.2205787 C580.849929,63.6778899 581.086082,65.0957798 581.37492,66.4742486 L581.477,66.941 Z M464.426371,155.032662 L450.800837,155.031749 C451.134141,156.209766 451.519402,157.384751 451.956622,158.556703 C452.78009,160.763979 453.66784,162.913375 454.619872,165.004892 C455.72625,167.267827 456.796176,169.447187 457.829649,171.542971 C458.604754,173.11481 459.402764,174.687849 460.22368,176.262088 L460.865,177.481 L460.921788,177.177405 C461.27616,175.249353 461.649166,173.191909 462.040804,171.005074 L462.188542,170.178946 C463.046889,165.372369 463.792832,160.323607 464.426371,155.032662 Z"></path>
        </clipPath>
    </defs>
    <g transform="translate(-947.0 -620.0)">
        <g clip-path="url(#i0)">
            <g transform="translate(946.9999999999999 620.9687442304564)">
                <g clip-path="url(#i1)">
                    <polygon points="0,1.83186799e-14 615.646919,1.83186799e-14 615.646919,216.327609 0,216.327609 0,1.83186799e-14" stroke="none" fill="#000">
                    </polygon>
                </g>
            </g>
        </g>
    </g>
</svg>